<svg width="72" height="72" viewBox="0 0 72 72" fill="none" xmlns="http://www.w3.org/2000/svg">
<circle cx="36" cy="36" r="36" fill="#C37C6B"/>
<path fill-rule="evenodd" clip-rule="evenodd" d="M37 27H35V35H27V37H35V45H37V37H45V35H37V27Z" fill="white"/>
<path fill-rule="evenodd" clip-rule="evenodd" d="M37 27H35V35H27V37H35V45H37V37H45V35H37V27Z" fill="white"/>
<path fill-rule="evenodd" clip-rule="evenodd" d="M37 27H35V35H27V37H35V45H37V37H45V35H37V27Z" fill="white"/>
<path fill-rule="evenodd" clip-rule="evenodd" d="M37 27H35V35H27V37H35V45H37V37H45V35H37V27Z" fill="white"/>
</svg>
