<svg width="1000" height="200" viewBox="0 0 1000 200" fill="none" xmlns="http://www.w3.org/2000/svg">
  <path d="M1000 100C974.424 100 971.836 60.2692 946.38 60.2692C920.923 60.2692 892.87 188 863.736 188C834.602 188 826.506 60.2692 792.259 60.2692C758.013 60.2692 756.416 143.308 702.468 143.308C648.52 143.308 644.47 12 599.164 12C553.857 12 524.555 186.022 471.755 186.022C418.955 186.022 394.367 41.2674 361.118 41.2674C327.869 41.2674 284.086 163.953 244.402 163.953C204.718 163.953 185.789 80.9234 164.232 80.9234C142.675 80.9234 138.241 120.166 119.241 120.166C100.242 120.166 77.4781 41.2674 58.539 41.2674C39.5999 41.2674 28.1217 100.396 0 100" stroke="white" opacity="0.06" stroke-width="2"/>
</svg>
