<svg width="1000" height="200" viewBox="0 0 1000 200" fill="none" xmlns="http://www.w3.org/2000/svg">
  <path d="M0 100C25.5762 100 28.1636 139.731 53.6203 139.731C79.077 139.731 107.13 12 136.264 12C165.398 12 173.494 139.731 207.741 139.731C241.987 139.731 243.584 56.6921 297.532 56.6921C351.48 56.6921 355.53 188 400.836 188C446.143 188 475.445 13.9775 528.245 13.9775C581.045 13.9775 605.633 158.733 638.882 158.733C672.131 158.733 715.914 36.0467 755.598 36.0467C795.282 36.0467 814.211 119.077 835.768 119.077C857.325 119.077 861.759 79.8336 880.759 79.8336C899.758 79.8336 922.522 158.733 941.461 158.733C960.4 158.733 971.878 99.6045 1000 100" stroke="white" stroke-opacity="0.06" stroke-width="2"/>
</svg>
