<svg width="1000" height="200" viewBox="0 0 1000 200" fill="none" xmlns="http://www.w3.org/2000/svg">
<path d="M1000 100C973.689 100 980.623 158.733 958.578 158.733C936.534 158.733 920.233 13.9775 885.226 13.9775C850.22 13.9775 830.793 188 800.754 188C770.716 188 768.031 56.6921 732.264 56.6921C696.496 56.6921 695.437 139.731 672.732 139.731C650.027 139.731 644.659 12 625.343 12C606.027 12 596.101 139.731 570.55 139.731C545 139.731 551.957 100 535 100C518.043 100 522.062 154.977 494.5 158.5C459.921 162.92 470 80 448 80C426 80 433.5 119 407 119C380.5 119 389 36 365 36C341 36 334 159 284 159C234 159 232 14 196.5 14C161 14 155.5 188 117.5 188C79.5 188 72.5 32.5 51 32.5C29.5 32.5 42 100 0.5 100" stroke="white" stroke-opacity="0.06" stroke-width="2"/>
</svg>
