<svg width="36" height="36" viewBox="0 0 36 36" fill="none" xmlns="http://www.w3.org/2000/svg" aria-hidden="true">
<circle cx="18" cy="18" r="18" fill="currentColor"/>
<path d="M17.1466 31.8463C16.125 31.4737 15.9063 30.9673 15.4868 27.9984C14.9998 24.5483 14.8934 22.4127 15.1757 21.7364C15.5497 20.8396 16.5659 20.3304 17.9855 20.325C19.3951 20.3188 20.42 20.8327 20.7953 21.7364C21.0789 22.4114 20.9725 24.5483 20.4848 27.9984C20.1537 30.409 19.9717 31.0184 19.5148 31.4279C18.8873 31.9951 17.9969 32.1521 17.1519 31.847L17.1466 31.8463ZM12.7834 28.3062C9.25577 26.5358 6.99591 23.5409 6.17438 19.5565C5.969 18.5279 5.93421 16.0757 6.12822 15.1311C6.64201 12.5983 7.62409 10.6177 9.25577 8.86639C11.6073 6.33703 14.6325 5 17.9995 5C21.3325 5 24.3456 6.31246 26.6403 8.76606C28.3863 10.6177 29.3678 12.5772 29.8702 15.1591C30.0414 16.0184 30.0414 18.3614 29.8815 19.3278C29.3486 22.4011 27.6975 25.1557 25.2588 27.0401C24.3891 27.7083 22.2684 28.8754 21.9259 28.8754C21.8001 28.8754 21.7887 28.743 21.8463 28.2058C21.9486 27.3438 22.0516 27.165 22.5306 26.9596C23.296 26.634 24.5972 25.6881 25.3959 24.8704C26.7888 23.4502 27.7788 21.6717 28.2606 19.7237C28.5576 18.5245 28.5235 15.858 28.1937 14.6233C27.1521 10.6955 24.0145 7.64471 20.1684 6.8298C19.0492 6.59638 17.0175 6.59638 15.8868 6.8298C11.9946 7.64471 8.7761 10.847 7.79201 14.8758C7.52977 15.9679 7.52977 18.6371 7.79201 19.7319C8.44294 22.3984 10.1335 24.8438 12.3465 26.2996C12.7226 26.5559 13.1156 26.7856 13.5226 26.9869C14.0016 27.1964 14.1046 27.3711 14.1956 28.2325C14.2525 28.7566 14.2411 28.9081 14.116 28.9081C14.0357 28.9081 13.4537 28.6522 12.8376 28.3492L12.7834 28.3062ZM12.8289 23.5703C11.6414 22.6038 10.5918 20.8894 10.1576 19.2084C9.89533 18.1928 9.89533 16.262 10.169 15.2499C10.8881 12.5157 12.863 10.3959 15.6025 9.40011C16.5391 9.06295 18.613 8.9906 19.7684 9.24654C23.7402 10.1475 26.56 14.2056 26.0148 18.231C25.798 19.8533 25.2501 21.1856 24.2801 22.423C23.8004 23.0482 22.6363 24.0978 22.431 24.0978C22.3968 24.0978 22.3641 23.702 22.3641 23.2195V22.3418L22.9581 21.6197C25.1952 18.8856 25.0354 15.0676 22.5929 12.5601C21.6456 11.5848 20.5497 11.0115 19.1341 10.7474C18.221 10.5747 18.027 10.5747 17.0683 10.7358C15.6126 10.9781 14.4853 11.5548 13.4838 12.5635C11.0253 15.039 10.8654 18.8808 13.1032 21.6169L13.6919 22.3418V23.229C13.6919 23.7184 13.6537 24.1163 13.6069 24.1163C13.5601 24.1163 13.2303 23.8835 12.8764 23.5921L12.8289 23.5703ZM16.7893 18.8159C15.7738 18.3334 15.2259 17.4243 15.2145 16.2388C15.2145 15.1734 15.7965 14.2438 16.8007 13.6999C17.4403 13.3586 18.5702 13.3586 19.2091 13.6999C19.9184 14.0907 20.4507 14.748 20.6929 15.5324C21.3552 17.829 18.9696 19.8411 16.8127 18.8132L16.7893 18.8159Z" fill="white"/>
</svg>
