<svg width="36" height="36" viewBox="0 0 36 36" fill="none" xmlns="http://www.w3.org/2000/svg" aria-hidden="true">
<circle cx="18" cy="18" r="18" fill="currentColor"/>
<path d="M15.1482 23.4287C15.1482 24.8489 13.9955 26 12.5745 26C11.1527 26 10 24.8489 10 23.4287C10 22.0084 11.1527 20.8573 12.5745 20.8573C13.9955 20.8581 15.1482 22.0084 15.1482 23.4287ZM10 13.4758V17.2845C14.7896 17.3336 18.6767 21.216 18.7258 26H22.5392C22.4901 19.1046 16.9041 13.5249 10 13.4758ZM10 10.8095C18.3758 10.8459 25.162 17.6131 25.1865 26H29C28.9763 15.5255 20.4856 7.03642 10 7V10.8095V10.8095Z" fill="white"/>
</svg>
