<svg width="36" height="37" viewBox="0 0 36 37" fill="none" xmlns="http://www.w3.org/2000/svg" aria-hidden="true">
<path fill-rule="evenodd" d="M18 36C27.9411 36 36 27.9411 36 18C36 8.05887 27.9411 0 18 0C8.05887 0 0 8.05887 0 18C0 27.9411 8.05887 36 18 36ZM25.1189 14.0584C25.783 13.979 26.4158 13.803 27.0045 13.5416C26.5645 14.1997 26.0077 14.7778 25.3663 15.2412C25.5743 19.8587 22.1304 25.0069 16.0347 25.0069C14.181 25.0069 12.4548 24.4634 11.0018 23.5319C12.7435 23.7373 14.4824 23.2539 15.8627 22.1717C14.4251 22.145 13.2129 21.1962 12.7955 19.892C13.3102 19.9907 13.8163 19.9613 14.2784 19.836C12.6995 19.5193 11.6093 18.0964 11.6453 16.5754C12.0874 16.8215 12.5941 16.9688 13.1315 16.9862C11.67 16.0087 11.2559 14.0784 12.116 12.6028C13.7356 14.5891 16.1547 15.896 18.8825 16.0327C18.4038 13.9797 19.9613 12.002 22.081 12.002C23.0252 12.002 23.8793 12.4007 24.4774 13.0389C25.2256 12.8915 25.9283 12.6181 26.5625 12.2421C26.3177 13.0088 25.797 13.6523 25.1189 14.0584Z" fill="currentColor"/>
</svg>
