<svg width="36" height="36" viewBox="0 0 36 36" fill="none" xmlns="http://www.w3.org/2000/svg" aria-hidden="true">
<circle cx="18" cy="18" r="18" fill="currentColor"/>
<path d="M24.6797 26.8165C25.1964 27.1762 25.8712 26.992 26.1848 26.3963C26.5009 25.8064 26.3378 25.0323 25.8235 24.6697C21.1953 21.4266 15.4557 20.6726 8.76797 22.4251C8.17596 22.5805 7.80971 23.2539 7.94517 23.9302C8.07812 24.6035 8.66512 25.0266 9.25463 24.874C15.3679 23.2712 20.5581 23.9244 24.6797 26.8165Z" fill="white"/>
<path d="M26.4507 21.4294C27.0954 21.8841 27.9382 21.651 28.3346 20.9115C28.7309 20.1748 28.5278 19.2079 27.8831 18.7532C22.4646 14.9316 14.5351 13.8582 8.1584 16.0769C7.43594 16.3302 7.02704 17.205 7.24529 18.0366C7.46353 18.8654 8.22863 19.3345 8.9536 19.0812C14.5351 17.1388 21.7321 18.1028 26.4507 21.4294Z" fill="white"/>
<path d="M8.11826 12.8712C13.5217 10.9892 22.8585 11.346 28.5202 15.2021C29.2979 15.7316 30.3063 15.4381 30.7704 14.5431C31.232 13.6482 30.9761 12.4913 30.1959 11.9618C23.6787 7.52445 13.3686 7.10718 7.16501 9.26545C6.29706 9.56761 5.80789 10.6208 6.07129 11.6165C6.33469 12.6122 7.25281 13.1734 8.11826 12.8712Z" fill="white"/>
</svg>
