<svg width="72" height="25" viewBox="0 0 72 25" fill="none" xmlns="http://www.w3.org/2000/svg" role="img">
<title>Louïz radio</title>
<g fill="currentColor">
  <path d="M56.0705 0H68.1767V4.46016L59.2565 20.3894H54.1592L63.0795 4.46018H56.0705V0Z"/>
  <path d="M71.9999 20.3895L54.1592 20.3894V24.8497H71.9999V20.3895Z"/>
  <path d="M47.4695 4.46018C46.2534 4.46018 45.2393 3.47536 45.2393 2.21504C45.2393 1.01493 46.2534 0 47.4695 0C48.7425 0 49.6994 1.01493 49.6994 2.21504C49.6994 3.47536 48.7425 4.46018 47.4695 4.46018Z"/>
  <path d="M47.7876 8.28318H52.2478V24.8496H47.7876V8.28318Z"/>
  <path d="M50.3364 2.21504C50.3364 3.47536 51.3506 4.46018 52.5667 4.46018C53.8397 4.46018 54.7966 3.47536 54.7966 2.21504C54.7966 1.01493 53.8397 0 52.5667 0C51.3506 0 50.3364 1.01493 50.3364 2.21504Z"/>
  <path d="M36.3182 14.8156V19.1151C36.3176 19.1327 36.3183 19.1504 36.3183 19.1681C36.3183 20.2532 37.4594 21.1327 38.8669 21.1327C40.2745 21.1327 41.4156 20.2532 41.4156 19.1681C41.4156 19.1504 41.4153 19.1327 41.4147 19.1151L41.4156 8.2832H45.8755V24.8496H41.4153V23.8032C40.4143 24.4597 39.1627 24.8498 37.8048 24.8498C34.6034 24.8498 31.9928 22.6814 31.863 19.9646H31.8579V8.2832H36.3181L36.3182 14.8156C36.3182 14.8157 36.3183 14.8156 36.3182 14.8156Z"/>
  <path fill-rule="evenodd" clip-rule="evenodd" d="M21.9822 24.8496C26.7328 24.8496 30.5839 21.1411 30.5839 16.5664C30.5839 11.9917 26.7328 8.2832 21.9822 8.2832C17.2315 8.2832 13.3804 11.9917 13.3804 16.5664C13.3804 21.1411 17.2315 24.8496 21.9822 24.8496ZM21.9821 21.0266C24.2695 21.0266 26.1237 19.0297 26.1237 16.5664C26.1237 14.1031 24.2695 12.1063 21.9821 12.1063C19.6948 12.1063 17.8405 14.1031 17.8405 16.5664C17.8405 19.0297 19.6948 21.0266 21.9821 21.0266Z"/>
  <path d="M4.46018 0H0V24.8496H12.1062V20.3894H4.46018V0Z"/>
</g>
</svg>
