<svg width="34" height="40" viewBox="0 0 34 40" fill="none" xmlns="http://www.w3.org/2000/svg">
<path fill-rule="evenodd" clip-rule="evenodd" d="M3 0C1.34315 0 0 1.34315 0 3V37C0 38.6569 1.34315 40 3 40H31C32.6569 40 34 38.6569 34 37V3C34 1.34315 32.6569 0 31 0H3ZM21.5659 14.5607C22.1447 13.9749 22.1447 13.0251 21.5659 12.4393C20.9872 11.8536 20.0488 11.8536 19.47 12.4393L12 20L19.47 27.5607C20.0488 28.1464 20.9872 28.1464 21.5659 27.5607C22.1447 26.9749 22.1447 26.0251 21.5659 25.4393L16.1918 20L21.5659 14.5607Z" fill="currentColor"/>
</svg>
