<svg width="34" height="40" viewBox="0 0 34 40" fill="none" xmlns="http://www.w3.org/2000/svg">
<path fill-rule="evenodd" clip-rule="evenodd" d="M31 0C32.6569 0 34 1.34315 34 3V37C34 38.6569 32.6569 40 31 40H3C1.34315 40 0 38.6569 0 37V3C0 1.34315 1.34315 0 3 0H31ZM12.4341 14.5607C11.8553 13.9749 11.8553 13.0251 12.4341 12.4393C13.0128 11.8536 13.9512 11.8536 14.53 12.4393L22 20L14.53 27.5607C13.9512 28.1464 13.0128 28.1464 12.4341 27.5607C11.8553 26.9749 11.8553 26.0251 12.4341 25.4393L17.8082 20L12.4341 14.5607Z" fill="currentColor"/>
</svg>
